<svg id="Layer_1" enable-background="new 0 0 512 512" viewBox="0 0 512 512" xmlns="http://www.w3.org/2000/svg"><g><g><path d="m489.715 167.004v284.952c0 26.534-21.51 48.044-48.044 48.044h-296.28c-26.534 0-48.044-21.51-48.044-48.044v-391.912c0-26.534 21.51-48.044 48.044-48.044h198.441z" fill="#83ffcc"/><path d="m489.714 167.004h-113.853c-17.689 0-32.029-14.34-32.029-32.029v-122.974z" fill="#00c884"/><path d="m402.888 427.607h-371.403c-5.081 0-9.2-4.119-9.2-9.2v-168.324c0-5.081 4.119-9.2 9.2-9.2h371.403c5.081 0 9.2 4.119 9.2 9.2v168.324c0 5.081-4.119 9.2-9.2 9.2z" fill="#00c884"/><g fill="#fff"><path d="m116.459 382.919c-1.814 0-3.441-.375-4.911-1.126s-2.221-1.939-2.221-3.566v-89.05c0-1.282.5-2.346 1.533-3.222 1.032-.907 2.377-1.376 3.972-1.376h26.243c5.474 0 10.447 1.001 14.92 2.909 4.504 1.939 8.039 5.067 10.635 9.415s3.91 10.134 3.91 17.297v1.063c0 7.163-1.345 12.949-4.035 17.297s-6.318 7.507-10.916 9.477c-4.567 1.971-9.665 2.971-15.327 2.971h-16.671v33.218c0 1.626-.751 2.815-2.221 3.566-1.501.752-3.128 1.127-4.911 1.127zm7.132-49.232h16.671c5.036 0 8.946-1.439 11.761-4.285 2.846-2.878 4.254-7.288 4.254-13.168v-1.626c0-5.943-1.408-10.322-4.254-13.137-2.815-2.815-6.725-4.223-11.761-4.223h-16.671z"/><path d="m189.901 382.919c-1.814 0-3.441-.375-4.911-1.189-1.47-.813-2.221-1.971-2.221-3.503v-88.925c0-1.72.751-2.909 2.221-3.628s3.097-1.095 4.911-1.095c1.689 0 3.159.25 4.379.751 1.189.5 2.283 1.314 3.284 2.502.97 1.157 2.002 2.753 3.097 4.817l29.871 58.272v-61.744c0-1.626.719-2.784 2.221-3.503 1.47-.719 3.097-1.095 4.911-1.095 1.783 0 3.409.375 4.911 1.095 1.47.719 2.221 1.877 2.221 3.503v89.05c0 1.533-.751 2.69-2.221 3.503-1.501.813-3.128 1.189-4.911 1.189-1.814 0-3.409-.438-4.848-1.314-1.439-.907-2.659-2.19-3.628-3.91l-32.154-61.212v61.744c0 1.533-.751 2.69-2.221 3.503-1.502.814-3.129 1.189-4.912 1.189z"/><path d="m291.713 383.732c-5.724 0-10.885-.97-15.389-2.94-4.535-2.002-8.132-5.161-10.76-9.571-2.659-4.379-3.972-10.197-3.972-17.485v-39.13c0-7.257 1.314-13.106 3.972-17.516 2.627-4.379 6.224-7.569 10.76-9.54 4.504-1.971 9.509-2.971 14.982-2.971 6.099 0 11.448 1.063 16.015 3.128s8.164 4.942 10.76 8.602 3.91 8.07 3.91 13.168c0 2.69-.626 4.504-1.814 5.442-1.22.938-3.003 1.439-5.317 1.439-1.877 0-3.534-.344-4.911-1.001-1.408-.688-2.127-1.939-2.221-3.722-.281-2.596-.907-4.973-1.877-7.194-1.001-2.189-2.596-3.941-4.848-5.224-2.252-1.314-5.349-1.971-9.29-1.971-5.005 0-8.946 1.408-11.761 4.223-2.846 2.815-4.254 7.194-4.254 13.137v39.13c0 5.912 1.408 10.291 4.254 13.106 2.815 2.846 6.756 4.254 11.761 4.254 4.942 0 8.852-1.408 11.698-4.254 2.878-2.815 4.316-7.194 4.316-13.106v-11.041h-13.575c-1.439 0-2.565-.563-3.378-1.752-.813-1.126-1.22-2.502-1.22-4.004 0-1.376.407-2.627 1.22-3.847s1.939-1.814 3.378-1.814h23.115c1.533 0 2.69.469 3.503 1.408.813.938 1.22 2.096 1.22 3.441v17.61c0 7.288-1.345 13.106-4.035 17.485-2.69 4.41-6.318 7.569-10.916 9.571-4.566 1.97-9.664 2.939-15.326 2.939z"/></g></g></g></svg>