<svg id="Layer_1" enable-background="new 0 0 512 512" viewBox="0 0 512 512" xmlns="http://www.w3.org/2000/svg"><g><g><path d="m489.715 167.004v284.952c0 26.534-21.51 48.044-48.044 48.044h-296.28c-26.534 0-48.044-21.51-48.044-48.044v-391.912c0-26.534 21.51-48.044 48.044-48.044h198.441z" fill="#ff944d"/><path d="m489.714 167.004h-113.853c-17.689 0-32.029-14.34-32.029-32.029v-122.974z" fill="#f60"/><path d="m402.888 427.607h-371.403c-5.081 0-9.2-4.119-9.2-9.2v-168.324c0-5.081 4.119-9.2 9.2-9.2h371.403c5.081 0 9.2 4.119 9.2 9.2v168.324c0 5.081-4.119 9.2-9.2 9.2z" fill="#f60"/><g fill="#fff"><path d="m138.665 384.014c-5.818 0-10.979-.845-15.452-2.565-4.504-1.689-8.007-3.785-10.51-6.256s-3.753-4.817-3.753-7.038c0-1.095.282-2.221.876-3.378.563-1.189 1.345-2.19 2.283-3.034.938-.845 1.939-1.282 3.034-1.282 1.251 0 2.44.532 3.566 1.564 1.095 1.001 2.471 2.252 4.097 3.691 1.595 1.439 3.628 2.69 6.037 3.753 2.44 1.095 5.536 1.626 9.29 1.626 3.222 0 6.131-.5 8.664-1.564 2.565-1.001 4.598-2.565 6.068-4.692s2.221-4.754 2.221-8.007c0-3.409-.782-6.224-2.346-8.477-1.595-2.221-3.691-4.098-6.35-5.661-2.627-1.501-5.474-2.878-8.539-4.16-3.034-1.251-6.131-2.596-9.258-4.035-3.159-1.439-6.005-3.159-8.633-5.192-2.596-2.002-4.661-4.567-6.256-7.632-1.564-3.128-2.346-7.006-2.346-11.636 0-4.942.938-9.071 2.753-12.386 1.845-3.316 4.285-5.974 7.35-7.945 3.034-1.971 6.412-3.378 10.072-4.254 3.691-.813 7.319-1.251 10.916-1.251 2.221 0 4.723.156 7.444.469 2.753.313 5.411.845 8.007 1.595 2.596.782 4.754 1.783 6.475 3.034 1.689 1.282 2.534 2.784 2.534 4.598 0 .876-.219 1.939-.657 3.128-.469 1.22-1.095 2.283-1.939 3.19-.876.876-1.971 1.314-3.316 1.314-1.157 0-2.471-.407-3.91-1.251-1.408-.876-3.284-1.72-5.568-2.565-2.283-.876-5.317-1.282-9.071-1.282-3.253 0-6.131.469-8.695 1.345-2.534.907-4.535 2.221-5.974 3.972-1.439 1.752-2.158 4.035-2.158 6.913s.782 5.255 2.346 7.069c1.564 1.845 3.66 3.409 6.256 4.723 2.596 1.282 5.442 2.534 8.539 3.691s6.193 2.534 9.29 4.098 5.974 3.503 8.602 5.724c2.659 2.221 4.754 5.098 6.35 8.539 1.564 3.441 2.346 7.757 2.346 12.855 0 6.475-1.345 11.792-3.972 16.077-2.659 4.254-6.287 7.413-10.885 9.477-4.63 2.066-9.916 3.098-15.828 3.098z"/><path d="m211.451 383.732c-1.971 0-3.816-.375-5.568-1.189-1.752-.813-2.909-2.033-3.441-3.628l-26.774-87.205c-.188-.5-.25-.938-.25-1.189 0-1.189.469-2.189 1.408-3.034.938-.845 2.096-1.533 3.503-2.096 1.376-.532 2.69-.813 3.941-.813 1.282 0 2.346.25 3.253.688.876.438 1.47 1.22 1.752 2.283l22.177 76.664 22.083-76.664c.344-1.063.97-1.845 1.877-2.283.876-.438 1.908-.688 3.097-.688 1.345 0 2.69.282 4.035.813 1.345.563 2.471 1.251 3.409 2.096s1.439 1.845 1.439 3.034c0 .188-.031.375-.094.532-.031.188-.063.407-.063.657l-26.618 87.205c-.563 1.595-1.689 2.815-3.441 3.628-1.753.814-3.661 1.189-5.725 1.189z"/><path d="m287.176 383.732c-5.724 0-10.885-.97-15.389-2.94-4.535-2.002-8.132-5.161-10.76-9.571-2.659-4.379-3.972-10.197-3.972-17.485v-39.13c0-7.257 1.314-13.106 3.972-17.516 2.627-4.379 6.224-7.569 10.76-9.54 4.504-1.971 9.509-2.971 14.982-2.971 6.099 0 11.448 1.063 16.015 3.128 4.567 2.064 8.164 4.942 10.76 8.602s3.91 8.07 3.91 13.168c0 2.69-.626 4.504-1.814 5.442-1.22.938-3.003 1.439-5.317 1.439-1.877 0-3.534-.344-4.911-1.001-1.408-.688-2.127-1.939-2.221-3.722-.282-2.596-.907-4.973-1.877-7.194-1.001-2.189-2.596-3.941-4.848-5.224-2.252-1.314-5.349-1.971-9.29-1.971-5.005 0-8.946 1.408-11.761 4.223-2.846 2.815-4.254 7.194-4.254 13.137v39.13c0 5.912 1.408 10.291 4.254 13.106 2.815 2.846 6.756 4.254 11.761 4.254 4.942 0 8.852-1.408 11.698-4.254 2.878-2.815 4.316-7.194 4.316-13.106v-11.041h-13.575c-1.439 0-2.565-.563-3.378-1.752-.813-1.126-1.22-2.502-1.22-4.004 0-1.376.407-2.627 1.22-3.847s1.939-1.814 3.378-1.814h23.115c1.533 0 2.69.469 3.503 1.408.813.938 1.22 2.096 1.22 3.441v17.61c0 7.288-1.345 13.106-4.035 17.485-2.69 4.41-6.318 7.569-10.916 9.571-4.566 1.97-9.665 2.939-15.326 2.939z"/></g></g></g></svg>