<?xml version="1.0" encoding="UTF-8"?>
<svg xmlns="http://www.w3.org/2000/svg" width="512" height="512" viewBox="0 0 128 128"><g><path d="M19.536,5.25H7A1.749,1.749,0,0,0,5.25,7V19.536A1.749,1.749,0,0,0,7,21.286H19.536a1.749,1.749,0,0,0,1.75-1.75V7A1.749,1.749,0,0,0,19.536,5.25Zm-1.75,12.536H8.75V8.75h9.036Z"/><path d="M121,5.25H108.464A1.749,1.749,0,0,0,106.714,7V19.536a1.749,1.749,0,0,0,1.75,1.75H121a1.749,1.749,0,0,0,1.75-1.75V7A1.749,1.749,0,0,0,121,5.25Zm-1.75,12.536h-9.036V8.75h9.036Z"/><path d="M121,106.714H108.464a1.749,1.749,0,0,0-1.75,1.75V121a1.749,1.749,0,0,0,1.75,1.75H121a1.749,1.749,0,0,0,1.75-1.75V108.464A1.749,1.749,0,0,0,121,106.714Zm-1.75,12.536h-9.036v-9.036h9.036Z"/><path d="M19.536,106.714H7a1.749,1.749,0,0,0-1.75,1.75V121A1.749,1.749,0,0,0,7,122.75H19.536a1.749,1.749,0,0,0,1.75-1.75V108.464A1.749,1.749,0,0,0,19.536,106.714Zm-1.75,12.536H8.75v-9.036h9.036Z"/><path d="M55.254,15.019h4.189a1.75,1.75,0,0,0,0-3.5H55.254a1.75,1.75,0,0,0,0,3.5Z"/><path d="M41.952,15.019h4.189a1.75,1.75,0,0,0,0-3.5H41.952a1.75,1.75,0,0,0,0,3.5Z"/><path d="M28.649,15.019h4.19a1.75,1.75,0,0,0,0-3.5h-4.19a1.75,1.75,0,0,0,0,3.5Z"/><path d="M99.351,11.519h-4.19a1.75,1.75,0,0,0,0,3.5h4.19a1.75,1.75,0,0,0,0-3.5Z"/><path d="M81.858,15.019h4.19a1.75,1.75,0,0,0,0-3.5h-4.19a1.75,1.75,0,0,0,0,3.5Z"/><path d="M68.557,15.019h4.189a1.75,1.75,0,0,0,0-3.5H68.557a1.75,1.75,0,0,0,0,3.5Z"/><path d="M59.443,112.981H55.254a1.75,1.75,0,1,0,0,3.5h4.189a1.75,1.75,0,0,0,0-3.5Z"/><path d="M46.141,112.981H41.952a1.75,1.75,0,0,0,0,3.5h4.189a1.75,1.75,0,0,0,0-3.5Z"/><path d="M32.839,112.981h-4.19a1.75,1.75,0,0,0,0,3.5h4.19a1.75,1.75,0,0,0,0-3.5Z"/><path d="M99.351,112.981h-4.19a1.75,1.75,0,0,0,0,3.5h4.19a1.75,1.75,0,0,0,0-3.5Z"/><path d="M86.048,112.981h-4.19a1.75,1.75,0,0,0,0,3.5h4.19a1.75,1.75,0,0,0,0-3.5Z"/><path d="M72.746,112.981H68.557a1.75,1.75,0,0,0,0,3.5h4.189a1.75,1.75,0,0,0,0-3.5Z"/><path d="M112.981,59.443a1.75,1.75,0,0,0,3.5,0V55.254a1.75,1.75,0,1,0-3.5,0Z"/><path d="M112.981,46.141a1.75,1.75,0,0,0,3.5,0V41.952a1.75,1.75,0,0,0-3.5,0Z"/><path d="M114.731,34.589a1.749,1.749,0,0,0,1.75-1.75v-4.19a1.75,1.75,0,0,0-3.5,0v4.19A1.75,1.75,0,0,0,114.731,34.589Z"/><path d="M112.981,99.351a1.75,1.75,0,0,0,3.5,0v-4.19a1.75,1.75,0,0,0-3.5,0Z"/><path d="M112.981,86.048a1.75,1.75,0,0,0,3.5,0V81.859a1.75,1.75,0,1,0-3.5,0Z"/><path d="M112.981,72.746a1.75,1.75,0,0,0,3.5,0V68.557a1.75,1.75,0,0,0-3.5,0Z"/><path d="M11.519,59.443a1.75,1.75,0,0,0,3.5,0V55.254a1.75,1.75,0,0,0-3.5,0Z"/><path d="M11.519,46.141a1.75,1.75,0,0,0,3.5,0V41.952a1.75,1.75,0,0,0-3.5,0Z"/><path d="M13.269,34.589a1.75,1.75,0,0,0,1.75-1.75v-4.19a1.75,1.75,0,0,0-3.5,0v4.19A1.749,1.749,0,0,0,13.269,34.589Z"/><path d="M11.519,99.351a1.75,1.75,0,0,0,3.5,0v-4.19a1.75,1.75,0,0,0-3.5,0Z"/><path d="M11.519,86.048a1.75,1.75,0,0,0,3.5,0V81.859a1.75,1.75,0,0,0-3.5,0Z"/><path d="M11.519,72.746a1.75,1.75,0,0,0,3.5,0V68.557a1.75,1.75,0,0,0-3.5,0Z"/><path d="M98.739,83.483V44.517a1.749,1.749,0,0,0-.941-1.552L64.809,25.789a1.752,1.752,0,0,0-1.618,0L30.2,42.965a1.749,1.749,0,0,0-.941,1.552V83.483a1.749,1.749,0,0,0,.941,1.552l32.989,17.176a1.752,1.752,0,0,0,1.618,0L97.8,85.035A1.749,1.749,0,0,0,98.739,83.483ZM64,29.314l29.2,15.2L64,59.72l-29.2-15.2ZM32.761,47.4,62.25,62.754V97.775L32.761,82.422ZM65.75,97.775V62.754L95.239,47.4V82.422Z"/></g></svg>
