<svg id="Layer_2" height="512" viewBox="0 0 32 32" width="512" xmlns="http://www.w3.org/2000/svg" data-name="Layer 2"><path d="m5.29 9.57.87 17.36a4.28 4.28 0 0 0 4.27 4.07h11.14a4.28 4.28 0 0 0 4.28-4.07l.87-17.36z" fill="#ffcf38" fill-rule="evenodd"/><path d="m21.57 32.07h-11.14a5.35 5.35 0 0 1 -5.35-5.07l-.86-17.38a1.07 1.07 0 1 1 2.14-.11l.87 17.36a3.21 3.21 0 0 0 3.21 3.05h11.13a3.21 3.21 0 0 0 3.21-3.05l.87-17.36a1.07 1.07 0 0 1 2.14.11l-.87 17.38a5.35 5.35 0 0 1 -5.35 5.07zm8.36-25.71h-27.86a1.07 1.07 0 0 1 0-2.14h7.5v-1.08a3.22 3.22 0 0 1 3.22-3.21h6.43a3.19 3.19 0 0 1 2.27.94 3.24 3.24 0 0 1 .94 2.27v1.07h7.5a1.07 1.07 0 0 1 0 2.14zm-18.22-2.15h8.57v-1.07a1.07 1.07 0 0 0 -1.07-1.07h-6.42a1.07 1.07 0 0 0 -1.07 1.07z" fill="#333"/><path d="m16 24.57a1.07 1.07 0 0 1 -1.07-1.07v-10.71a1.07 1.07 0 1 1 2.14 0v10.71a1.07 1.07 0 0 1 -1.07 1.07zm4.29-2.14a1.07 1.07 0 0 1 -1.07-1.07v-6.43a1.07 1.07 0 0 1 2.14 0v6.43a1.07 1.07 0 0 1 -1.07 1.07zm-8.57 0a1.07 1.07 0 0 1 -1.07-1.07v-6.43a1.07 1.07 0 0 1 2.14 0v6.43a1.07 1.07 0 0 1 -1.08 1.07z" fill="#fff"/></svg>