<svg height="512" viewBox="0 0 24 24" width="512" xmlns="http://www.w3.org/2000/svg"><g id="Layer_2" data-name="Layer 2"><path d="m22.048 1.952a3.212 3.212 0 0 0 -3.079-.852l-10.635 2.657a3.98 3.98 0 0 0 -2.9 2.9l-1.457 5.823-2.532 1.688a1 1 0 0 0 -.152 1.539l7 7a1 1 0 0 0 .707.293.831.831 0 0 0 .1 0 1 1 0 0 0 .733-.44l1.688-2.532 5.821-1.456a3.98 3.98 0 0 0 2.9-2.9l2.658-10.641a3.216 3.216 0 0 0 -.852-3.079zm-13.203 18.478-5.275-5.275 1.108-.738 4.905 4.9zm9.455-5.249a1.981 1.981 0 0 1 -1.446 1.446l-5.628 1.407a.836.836 0 0 0 -.121-.016l-5.123-5.125a1 1 0 0 0 -.016-.121l1.407-5.628a1.981 1.981 0 0 1 1.446-1.444l10.635-2.661c.036-.009.07-.007.106-.013l-5.275 5.274a2.951 2.951 0 0 0 -1.285-.3 3 3 0 1 0 3 3 2.951 2.951 0 0 0 -.3-1.285l5.274-5.275c-.006.036 0 .07-.013.106zm-4.3-4.181a1 1 0 1 1 -1-1 1 1 0 0 1 1 1z"/></g></svg>