<svg id="Capa_1" enable-background="new 0 0 23.906 23.906" height="512" viewBox="0 0 23.906 23.906" width="512" xmlns="http://www.w3.org/2000/svg"><g><g id="layer3_17_" transform="translate(14.792 -80.432)"><path id="icon-forward" d="m-1.773 82.328.003 3.175c-5.8.606-9.653 3.782-11.275 7.403-1.338 2.976-1.86 6.345-1.727 9.545.007 1.131 1.591 1.383 1.949.31.771-2.312 1.863-4.722 3.684-6.518 1.64-1.617 3.939-2.818 7.372-3l-.005 3.089c-.001.838.969 1.306 1.624.782l8.88-6.998c.509-.4.509-1.172 0-1.572l-8.88-6.998c-.79-.555-1.6.015-1.625.782zm2.001 2.059 6.275 4.946-6.275 4.938v-2.052c-.002-.547-.442-.991-.989-.997-4.444-.029-7.618 1.455-9.788 3.595-.661.652-1.266 1.393-1.762 2.13.287-1.066.501-1.996 1.068-3.178 1.501-3.132 4.509-5.869 10.549-6.363.521-.04.922-.474.923-.997v-2.022z"/></g></g></svg>