<svg id="Layer_2" height="512" viewBox="0 0 32 32" width="512" xmlns="http://www.w3.org/2000/svg" data-name="Layer 2"><path d="m16 4.27a11.73 11.73 0 1 1 -11.73 11.73 11.74 11.74 0 0 1 11.73-11.73z" fill="#ffcf38" fill-rule="evenodd"/><g fill="#333"><path d="m21.71 1.05a1.07 1.07 0 1 0 -.71 1.95 13.86 13.86 0 0 1 -3.34 26.72l1.46-3.72a1.07 1.07 0 1 0 -2-.79l-2.12 5.31a1.08 1.08 0 0 0 1 1.48 16 16 0 0 0 5.71-30.95z"/><path d="m17 1.46a1.09 1.09 0 0 0 -1-1.46 16 16 0 0 0 -5.68 30.95 1.08 1.08 0 0 0 1.38-.61 1.07 1.07 0 0 0 -.7-1.34 13.86 13.86 0 0 1 3.38-26.76l-1.5 3.76a1.07 1.07 0 0 0 .59 1.39 1.08 1.08 0 0 0 1.39-.59z"/></g></svg>