<svg id="Layer_2" height="512" viewBox="0 0 32 32" width="512" xmlns="http://www.w3.org/2000/svg" data-name="Layer 2"><path d="m30.93 11.48a2.13 2.13 0 0 0 -.54-1.42l-7.39-8.28a2.13 2.13 0 0 0 -1.59-.72h-16.08a4.27 4.27 0 0 0 -4.26 4.27v21.34a4.27 4.27 0 0 0 4.27 4.27h21.33a4.27 4.27 0 0 0 4.27-4.27v-15.19z" fill="#ffcf38" fill-rule="evenodd"/><path d="m24.53 23.47a2.13 2.13 0 0 0 -2.13-2.13h-12.8a2.13 2.13 0 0 0 -2.13 2.13v7.47h17.06z" fill="#fff" fill-rule="evenodd"/><path d="m26.67 32h-21.34a5.33 5.33 0 0 1 -5.33-5.33v-21.34a5.33 5.33 0 0 1 5.33-5.33h16.11a3.21 3.21 0 0 1 2.39 1.07l7.36 8.28a3.19 3.19 0 0 1 .81 2.13v15.19a5.33 5.33 0 0 1 -5.33 5.33zm-21.34-29.87a3.2 3.2 0 0 0 -3.2 3.2v21.34a3.2 3.2 0 0 0 3.2 3.2h21.34a3.2 3.2 0 0 0 3.2-3.2v-15.19a1.06 1.06 0 0 0 -.27-.71l-7.36-8.28a1.07 1.07 0 0 0 -.8-.36z" fill="#333"/></svg>