<svg height="512" viewBox="0 0 24 24" width="512" xmlns="http://www.w3.org/2000/svg"><g id="Layer_2" data-name="Layer 2"><path d="m13.514 23h-.079a2.565 2.565 0 0 1 -2.381-1.77l-1.968-5.9a.653.653 0 0 0 -.411-.409l-5.9-1.968a2.59 2.59 0 0 1 -.143-4.862l17.303-6.928a2.233 2.233 0 0 1 2.9 2.9l-6.92 17.309a2.564 2.564 0 0 1 -2.401 1.628zm-10.144-13.058a.59.59 0 0 0 .03 1.107l5.9 1.968a2.657 2.657 0 0 1 1.674 1.675l1.976 5.908a.59.59 0 0 0 1.108.032l6.921-17.309a.216.216 0 0 0 -.05-.252.219.219 0 0 0 -.252-.051z"/></g></svg>