<svg id="Layer_1" enable-background="new 0 0 512 512" viewBox="0 0 512 512" xmlns="http://www.w3.org/2000/svg"><g id="Layer_2_00000072265225109600859700000017096348942079156403_"><g id="shapes"><path d="m42.6 247.5h162.2c18.7 0 35.1-12.2 40.7-30 .1.2.2.5.4.8 7.4 13.2 21.4 21.4 36.6 21.4h187.4c23.2 0 41.9-18.7 42-41.9 0-7.7-2.1-15.2-6.1-21.8l-93.8-155.8c-12.1-19.8-37.9-26.1-57.7-14-5.7 3.5-10.4 8.2-13.9 13.9l-93 154.5v-131.9c0-23.5-19.1-42.6-42.6-42.6h-162.2c-23.5 0-42.6 19.1-42.6 42.6v162.2c0 23.5 19.1 42.5 42.6 42.6zm232-54.5 93.7-155.7c1.7-2.7 4.6-4.4 7.9-4.4 3.2 0 6.1 1.6 7.8 4.3l93.8 155.8c2.7 4.3 1.3 10-3 12.6-1.5.9-3.2 1.4-4.9 1.4h-187.5c-3.3 0-6.4-1.8-8-4.7-1.6-3-1.6-6.5.2-9.3zm-241.8-150.3c0-5.4 4.4-9.8 9.8-9.8h162.2c5.4 0 9.8 4.4 9.8 9.8v162.2c0 5.4-4.4 9.8-9.8 9.8h-162.2c-5.4 0-9.8-4.4-9.8-9.8z"/><path d="m509.3 382.5c-11.3-19.8-22.9-39.9-34.1-59.4-7.2-12.5-14.4-25-21.6-37.5-3.8-7-11.2-11.3-19.2-11.1-35.3.1-71.8.1-111.7 0-7.9-.2-15.2 4-18.9 10.9-16.2 28.2-32.3 56.3-48.2 83.8-7.3-63.9-61.6-113.6-127.4-113.6-70.8-.1-128.2 57.3-128.2 128.1s57.4 128.2 128.2 128.2c60.6 0 111.6-42.3 124.8-99 14.4 24.9 32.3 55.9 50.2 87.2 4 7.5 11.8 12 20.3 11.8h.2c13.6-.1 27.5-.1 40.9-.1h26.9 42.7.1c11.3 0 16.9-6.8 19.3-10.9 7.8-13.6 15.6-27.2 23.5-40.8 10.6-18.4 21.5-37.4 32.2-56.1 3.6-6.7 3.6-14.7 0-21.5zm-381.1 96.6c-52.7 0-95.4-42.7-95.4-95.4s42.7-95.4 95.4-95.4 95.4 42.7 95.4 95.4c0 52.7-42.7 95.4-95.4 95.4zm320.4-35.3c-6.8 11.8-13.5 23.5-20.3 35.3-12.4 0-24.8 0-36.9 0h-26.9c-11.7 0-23.7 0-35.6 0-17.8-31.1-35.4-61.6-49.5-85.9 16.2-28.1 32.9-57 49.5-86h99.3c6.2 10.8 12.3 21.5 18.5 32.2 10.1 17.6 20.6 35.8 30.9 53.8-9.6 17-19.4 34-29 50.6z"/></g></g></svg>