<?xml version="1.0" encoding="UTF-8" standalone="no"?>
<!-- Created with Inkscape (http://www.inkscape.org/) -->

<svg
   version="1.1"
   id="svg1449"
   xml:space="preserve"
   width="682.66669"
   height="682.66669"
   viewBox="0 0 682.66669 682.66669"
   xmlns="http://www.w3.org/2000/svg"
   xmlns:svg="http://www.w3.org/2000/svg"><defs
     id="defs1453"><clipPath
       clipPathUnits="userSpaceOnUse"
       id="clipPath1463"><path
         d="M 0,512 H 512 V 0 H 0 Z"
         id="path1461" /></clipPath></defs><g
     id="g1455"
     transform="matrix(1.3333333,0,0,-1.3333333,0,682.66667)"><g
       id="g1457"><g
         id="g1459"
         clip-path="url(#clipPath1463)"><g
           id="g1465"
           transform="translate(492,157.667)"><path
             d="m 0,0 h -77.667 c -33.137,0 -60,-26.863 -60,-60 v -77.667 m -234.183,0 h 214.517 19.666 c 25.186,0 49.339,10.005 67.146,27.813 l 42.708,42.708 C -10.005,-49.339 0,-25.186 0,0 v 234.183 c 0,26.561 -10.552,52.035 -29.333,70.817 -18.782,18.781 -44.256,29.333 -70.817,29.333 h -271.7 c -26.561,0 -52.035,-10.552 -70.817,-29.333 C -461.448,286.218 -472,260.744 -472,234.183 v -271.7 c 0,-26.561 10.552,-52.035 29.333,-70.817 18.782,-18.781 44.256,-29.333 70.817,-29.333 z m 17.85,118 h 118 m -118,236 h 236 m -236,-118 h 236"
             style="fill:none;stroke:#000000;stroke-width:40;stroke-linecap:round;stroke-linejoin:round;stroke-miterlimit:10;stroke-dasharray:none;stroke-opacity:1"
             id="path1467" /></g></g></g></g></svg>
