<svg id="Capa_1" enable-background="new 0 0 609.894 609.894" height="512" viewBox="0 0 609.894 609.894" width="512" xmlns="http://www.w3.org/2000/svg"><g><g><path d="m509.97 0h-408.942c-32.411 0-59.168 26.343-59.582 58.755l-1.241 100.408c0 29.102 23.723 52.824 52.824 52.824h10.482c29.102 0 52.824-23.723 52.824-52.824v-33.101c0-5.517 4.551-10.068 10.068-10.068h72.272c5.517 0 10.068 4.551 10.068 10.068v357.634c0 5.517-4.551 10.068-10.068 10.068-29.102 0-52.824 23.723-52.824 52.824v10.482c0 29.102 23.723 52.824 52.824 52.824h135.992c29.102 0 52.824-23.723 52.824-52.824v-10.482c0-29.102-23.723-52.824-52.824-52.824-5.517 0-10.068-4.551-10.068-10.068v-357.635c0-5.517 4.551-10.068 10.068-10.068h68.823c5.517 0 10.068 4.551 10.068 10.068v33.101c0 29.102 23.723 52.824 52.824 52.824h10.482c29.102 0 52.824-23.723 52.824-52.824v-99.58c-.136-32.825-26.893-59.582-59.718-59.582zm-13.655 159.163v-33.101c0-29.102-23.723-52.824-52.824-52.824h-68.823c-29.102 0-52.824 23.723-52.824 52.824v357.634c0 29.102 23.723 52.824 52.824 52.824 5.517 0 10.068 4.551 10.068 10.068v10.482c0 5.517-4.551 10.068-10.068 10.068h-135.993c-5.517 0-10.068-4.551-10.068-10.068v-10.482c0-5.517 4.551-10.068 10.068-10.068 29.102 0 52.824-23.723 52.824-52.824v-357.635c0-29.102-23.723-52.824-52.824-52.824h-72.409c-29.102 0-52.824 23.723-52.824 52.824v33.101c0 5.517-4.551 10.068-10.068 10.068h-10.483c-5.517 0-10.068-4.551-10.068-9.793l1.379-100.132c.138-9.103 7.586-16.551 16.689-16.551h408.941c9.241 0 16.689 7.448 16.689 16.827v99.58c0 5.517-4.551 10.068-10.068 10.068h-10.483c-5.241.002-9.655-4.549-9.655-10.066z"/></g></g></svg>