<svg id="Capa_1" enable-background="new 0 0 23.886 23.886" height="512" viewBox="0 0 23.886 23.886" width="512" xmlns="http://www.w3.org/2000/svg"><g><g id="layer3_34_" transform="translate(-1.088 -96.309)"><path id="icon-replay" d="m10.358 97.408-8.888 6.998c-.509.4-.509 1.172 0 1.572l8.888 6.998c.655.513 1.613.049 1.617-.783l-.001-3.085c3.439.176 5.736 1.379 7.375 2.996 1.821 1.796 2.905 4.206 3.676 6.518.358 1.073 1.942.821 1.949-.31 0-4.49-.546-6.961-1.72-9.545-1.648-3.44-4.989-6.647-11.282-7.439l.003-3.139c-.044-1-1.123-1.212-1.617-.781zm-.384 2.849v2.015c0 .522.402.956.923.997 6.218.49 9.048 3.231 10.549 6.363.567 1.182.752 2.035 1.056 3.183-.496-.736-1.088-1.483-1.75-2.135-2.17-2.14-5.337-3.624-9.781-3.595-.55.002-.995.447-.997.997v2.045l-6.267-4.931z"/></g></g></svg>