<svg height="512" viewBox="0 0 512 512" width="512" xmlns="http://www.w3.org/2000/svg"><g id="Outline"><path d="m56 448h16v16h-16z"/><path d="m440 448h16v16h-16z"/><path d="m248 448h16v16h-16z"/><path d="m344 448h16v16h-16z"/><path d="m152 448h16v16h-16z"/><path d="m344 416h-32v-16h-16v16h-32v-16h-16v16h-32v-16h-16v16h-32v-64h16v-16h-120a40.045 40.045 0 0 0 -40 40v80a40.045 40.045 0 0 0 40 40h384a40.045 40.045 0 0 0 40-40v-80a40.029 40.029 0 0 0 -13.543-30l-10.587 12a24.023 24.023 0 0 1 8.13 18v48.022a39.841 39.841 0 0 0 -16-7.217v-16.805h-16v16h-32v-16h-16v16h-32v-16h-16zm32 40a24 24 0 1 1 -24-24 24.028 24.028 0 0 1 24 24zm7.978-24h32.044a39.912 39.912 0 0 0 0 48h-32.044a39.912 39.912 0 0 0 0-48zm-311.978-16v-64h32v64zm56.022 16a39.912 39.912 0 0 0 0 48h-32.044a39.912 39.912 0 0 0 0-48zm7.978 24a24 24 0 1 1 24 24 24.028 24.028 0 0 1 -24-24zm55.978-24h32.044a39.912 39.912 0 0 0 0 48h-32.044a39.912 39.912 0 0 0 0-48zm40.022 24a24 24 0 1 1 24 24 24.028 24.028 0 0 1 -24-24zm55.978-24h32.044a39.912 39.912 0 0 0 0 48h-32.044a39.912 39.912 0 0 0 0-48zm-135.978-16h-32v-64h32zm-96-62.624v63.429a39.835 39.835 0 0 0 -16 7.217v-48.022a24.039 24.039 0 0 1 16-22.624zm-16 102.624a24 24 0 1 1 24 24 24.028 24.028 0 0 1 -24-24zm432 0a24 24 0 1 1 -24-24 24.028 24.028 0 0 1 24 24z"/><path d="m304 224h-96a8 8 0 0 0 -8 8v144a8 8 0 0 0 8 8h96a8 8 0 0 0 8-8v-144a8 8 0 0 0 -8-8zm-88 16h80v56h-80zm0 128v-56h80v56z"/><path d="m160 312a8 8 0 0 0 8-8v-144a8 8 0 0 0 -8-8h-96a8 8 0 0 0 -8 8v144a8 8 0 0 0 8 8zm-88-16v-56h80v56zm0-128h80v56h-80z"/><path d="m448 384a8 8 0 0 0 8-8v-144a8 8 0 0 0 -8-8h-96a8 8 0 0 0 -8 8v144a8 8 0 0 0 8 8zm-88-16v-56h80v56zm0-128h80v56h-80z"/><path d="m208 16h-160a8 8 0 0 0 -8 8v61.784l-22.86 38.1a8 8 0 0 0 6.86 12.116h208a8 8 0 0 0 6.86-12.116l-22.86-38.1v-61.784a8 8 0 0 0 -8-8zm-169.871 104 16.731-27.884a8 8 0 0 0 1.14-4.116v-56h96v56a8 8 0 0 0 1.14 4.116l16.731 27.884zm179.742 0h-29.341l-20.53-34.216v-53.784h32v56a8 8 0 0 0 1.14 4.116z"/></g></svg>