<?xml version="1.0"?>
<svg xmlns="http://www.w3.org/2000/svg" id="outline" viewBox="0 0 512 512" width="512" height="512"><path d="M160,433.376v-75.71a37.731,37.731,0,0,0-26.4-35.942l-54.214-150.6L228.155,80.575,342.978,208.156l-22.133,44.266a8,8,0,0,0,1.5,9.235L352,291.314V368a24,24,0,0,0,48,0V291.314l29.657-29.657a8,8,0,0,0,1.5-9.235l-23.226-46.453a32.051,32.051,0,0,0-27.256-29.624L263.966,46.671a31.994,31.994,0,0,0-61.528-10.912L50.7,128.122c-.891-.075-1.79-.122-2.7-.122a31.991,31.991,0,0,0-17.819,58.566l56.76,157.665-22.1,44.191.006,0A7.952,7.952,0,0,0,64,392v41.376A24.039,24.039,0,0,0,48,456v32a8,8,0,0,0,8,8H168a8,8,0,0,0,8-8V456A24.039,24.039,0,0,0,160,433.376ZM144,432H80V400h64Zm0-74.334V384H84.944l18.012-36.023A21.665,21.665,0,0,1,144,357.666ZM67.5,185.345l48.662,135.174a37.349,37.349,0,0,0-17.842,8.087L49.133,191.971A31.817,31.817,0,0,0,67.5,185.345ZM259.027,65.1l102.8,114.221A32.21,32.21,0,0,0,348.973,190.9L246.174,76.679A32.21,32.21,0,0,0,259.027,65.1ZM384,312H368V280h16Zm0,56a8,8,0,0,1-16,0V328h16Zm15.486-98.8A8,8,0,0,0,392,264H360a8,8,0,0,0-7.486,5.2l-14.78-14.78,13.25-26.5a31.944,31.944,0,0,0,50.032,0l13.25,26.5ZM392,208a16,16,0,1,1-16-16A16.019,16.019,0,0,1,392,208ZM232,32a16,16,0,1,1-16,16A16.019,16.019,0,0,1,232,32ZM200.882,55.437a32.022,32.022,0,0,0,10.235,16.779l-132,80.347a32.035,32.035,0,0,0-10.235-16.779ZM48,144a16,16,0,1,1-16,16A16.019,16.019,0,0,1,48,144ZM160,480H64V456a8.009,8.009,0,0,1,8-8h80a8.009,8.009,0,0,1,8,8Z"/><path d="M488,416H464V344a8,8,0,0,0-8-8H424a8,8,0,0,0-8,8v72H336V344a8,8,0,0,0-8-8H296a8,8,0,0,0-8,8v72H272V344a8,8,0,0,0-8-8H232a8,8,0,0,0-8,8v72H200a8,8,0,0,0-8,8v64a8,8,0,0,0,8,8H488a8,8,0,0,0,8-8V424A8,8,0,0,0,488,416Zm-40-64v32H432V352Zm-16,48h16v16H432Zm0,32h16v8a8,8,0,0,1-16,0ZM320,352v32H304V352Zm-16,48h16v16H304Zm0,32h16v8a8,8,0,0,1-16,0Zm-48-80v32H240V352Zm-16,48h16v16H240Zm0,32h16v8a8,8,0,0,1-16,0Zm240,48H208V432h16v8a24,24,0,0,0,48,0v-8h16v8a24,24,0,0,0,48,0v-8h80v8a24,24,0,0,0,48,0v-8h16Z"/><circle cx="120" cy="360" r="8"/></svg>
