<svg height="479pt" viewBox="0 -20 479.976 479" width="479pt" xmlns="http://www.w3.org/2000/svg"><path d="m216 319.914062h40c8.835938 0 16-7.164062 16-16v-29.34375c0-.882812-.070312-1.765624-.214844-2.640624l-11.113281-66.648438c-1.265625-7.726562-7.953125-13.390625-15.785156-13.367188h-28.886719c-8.835938 0-16 7.164063-16 16v96c0 8.835938 7.164062 16 16 16zm0-16v-24h40v24zm28.886719-96 9.335937 56h-38.222656v-56zm0 0"/><path d="m32 391.914062h16v16h-16zm0 0"/><path d="m288 391.914062h16v16h-16zm0 0"/><path d="m431.769531 209.914062-15.320312-40.351562c.265625-5.113281-.964844-10.195312-3.546875-14.617188l-81.335938-137.640624c-.269531-.519532-.445312-1.070313-.742187-1.597657-1.601563-2.574219-3.570313-4.902343-5.847657-6.90625-7.492187-7.238281-18.238281-10.007812-28.296874-7.285156-3.074219.667969-6.027344 1.804687-8.757813 3.367187l-158.507813 93.632813-55.09375 157.398437h-2.320312c-13.253906 0-24 10.746094-24 24v40c0 13.253907 10.746094 24 24 24h24v16h-56c-22.089844 0-40 17.910157-40 40 0 22.089844 17.910156 40 40 40h256c22.089844 0 40-17.910156 40-40 0-22.089843-17.910156-40-40-40h-56v-16h56v-72l-13.878906-83.945312c-1.902344-11.585938-11.929688-20.082031-23.671875-20.054688h-58.449219c-13.253906 0-24 10.746094-24 24v64h-21.753906l28.714844-114.839843 112.519531-67.519531 72.902343 109.359374c2.144532 3.136719 4.953126 5.769532 8.226563 7.703126l31.75 44.496093-32.167969 73.601563-45.792968 19.199218 7.679687 8.382813c15.5625 16.902344 37.484375 26.519531 60.457031 26.523437 44.5625.351563 81-35.4375 81.441406-80-.050781-31.753906-19.011718-60.425781-48.207031-72.90625zm-415.769531 190c0-13.253906 10.746094-24 24-24s24 10.746094 24 24c0 13.253907-10.746094 24-24 24s-24-10.746093-24-24zm304 0c0 13.253907-10.746094 24-24 24s-24-10.746093-24-24c0-13.253906 10.746094-24 24-24s24 10.746094 24 24zm-55.792969-24c-10.941406 14.128907-10.941406 33.871094 0 48h-32.207031v-16h-16v16h-40v-16h-16v16h-40v-16h-16v16h-32.207031c10.941406-14.128906 10.941406-33.871093 0-48h56.207031v16h16v-16h48v16h16v-16zm-40.207031-16h-112v-16h112zm-32-168c0-4.417968 3.582031-8 8-8h58.449219c3.910156.003907 7.246093 2.832032 7.886719 6.6875l13.664062 81.976563v55.335937h-88zm-16 80v56h-104c-4.417969 0-8-3.582031-8-8v-40c0-4.417968 3.582031-8 8-8zm-6.960938-141.160156-31.285156 125.160156h-46.472656l51.304688-146.601562 153.46875-90.6875c.136718-.078125.28125-.117188.417968-.191406l.054688.097656c1.226562-.722656 2.546875-1.261719 3.929687-1.601562 4.726563-1.070313 9.683594.140624 13.382813 3.273437 1.136718.984375 2.113281 2.140625 2.894531 3.421875l1.113281 1.882812c3.308594 7.101563.699219 15.550782-6.03125 19.558594zm140.175782-65.441406 10.832031-6.503906c4.515625-2.746094 8.25-6.601563 10.855469-11.199219l68.226562 115.503906c1.457032 2.460938 1.824219 5.414063 1.015625 8.15625-.808593 2.738281-2.722656 5.019531-5.28125 6.292969-4.644531 2.308594-10.28125.8125-13.167969-3.496094zm88.921875 127.9375c3.136719-.796875 6.050781-2.296875 8.527343-4.382812l10.191407 26.832031-1.023438 2.351562zm.421875 153.601562c-14.414063-.007812-28.433594-4.710937-39.933594-13.402343l29.664062-12.460938 30.910157-70.675781 8-18.398438 2.402343-5.398437c21.105469 10.859375 34.378907 32.597656 34.398438 56.335937-.4375 35.726563-29.714844 64.355469-65.441406 64zm0 0"/><path d="m80 279.914062h32v16h-32zm0 0"/><path d="m80 303.914062h16v16h-16zm0 0"/></svg>