<svg height="480pt" viewBox="0 0 480 480" width="480pt" xmlns="http://www.w3.org/2000/svg"><path d="m439.992188 312.71875v-72.71875c0-4.417969-3.582032-8-8-8h-80c-4.417969 0-8 3.582031-8 8v72h-56v-72c0-4.417969-3.582032-8-8-8h-80c-4.417969 0-8 3.582031-8 8v72h-144c-24.84375.144531-45.472657 19.222656-47.554688 43.984375-2.078125 24.757813 15.082031 47.011719 39.554688 51.296875v56.71875h-16v16h48v-16h-16v-56h368v56h-16v16h48v-16h-16v-56.71875c23.085937-3.882812 39.992187-23.871094 39.992187-47.28125s-16.90625-43.398438-39.992187-47.28125zm-80-64.71875h64v64h-64zm-152 0h64v64h-64zm-160 144c-17.671876 0-32-14.328125-32-32s14.328124-32 32-32c17.671874 0 32 14.328125 32 32s-14.328126 32-32 32zm348.320312 0h-312.640625c16.425781-18.171875 16.425781-45.828125 0-64h312.640625c-16.425781 18.171875-16.425781 45.828125 0 64zm35.679688 0c-17.671876 0-32-14.328125-32-32s14.328124-32 32-32c17.671874 0 32 14.328125 32 32s-14.328126 32-32 32zm0 0"/><path d="m63.992188 360c0 8.835938-7.164063 16-16 16-8.835938 0-16-7.164062-16-16s7.164062-16 16-16c8.835937 0 16 7.164062 16 16zm0 0"/><path d="m143.992188 360c0 8.835938-7.164063 16-16 16-8.835938 0-16-7.164062-16-16s7.164062-16 16-16c8.835937 0 16 7.164062 16 16zm0 0"/><path d="m199.992188 360c0 8.835938-7.164063 16-16 16-8.835938 0-16-7.164062-16-16s7.164062-16 16-16c8.835937 0 16 7.164062 16 16zm0 0"/><path d="m255.992188 360c0 8.835938-7.164063 16-16 16-8.835938 0-16-7.164062-16-16s7.164062-16 16-16c8.835937 0 16 7.164062 16 16zm0 0"/><path d="m311.992188 360c0 8.835938-7.164063 16-16 16-8.835938 0-16-7.164062-16-16s7.164062-16 16-16c8.835937 0 16 7.164062 16 16zm0 0"/><path d="m367.992188 360c0 8.835938-7.164063 16-16 16-8.835938 0-16-7.164062-16-16s7.164062-16 16-16c8.835937 0 16 7.164062 16 16zm0 0"/><path d="m447.992188 360c0 8.835938-7.164063 16-16 16-8.835938 0-16-7.164062-16-16s7.164062-16 16-16c8.835937 0 16 7.164062 16 16zm0 0"/><path d="m47.992188 200c-4.417969 0-8 3.582031-8 8v80c0 4.417969 3.582031 8 8 8h80c4.417968 0 8-3.582031 8-8v-80c0-4.417969-3.582032-8-8-8zm72 80h-64v-64h64zm0 0"/><path d="m39.992188 0v117.441406l-38.503907 53.910156c-1.738281 2.4375-1.972656 5.644532-.601562 8.308594 1.367187 2.660156 4.109375 4.335938 7.105469 4.339844h160c2.996093-.003906 5.738281-1.679688 7.109374-4.339844 1.367188-2.664062 1.136719-5.871094-.605468-8.308594l-38.503906-53.910156v-117.441406h-16v16h-64v-16zm16 64h64v16h-64zm0 32h64v16h-64zm67.878906 32 28.578125 40h-128.914063l28.578125-40zm-3.878906-96v16h-64v-16zm0 0"/></svg>