<svg height="512pt" viewBox="0 0 512.00038 512" width="512pt" xmlns="http://www.w3.org/2000/svg"><path d="m452.265625 392.535156v-68.269531h-85.332031v68.269531h-68.265625v-68.269531h-85.335938v68.269531h-68.265625v-68.269531h-85.332031v68.269531c-32.992187 0-59.734375 26.742188-59.734375 59.730469 0 32.992187 26.742188 59.734375 59.734375 59.734375h392.53125c32.992187 0 59.734375-26.742188 59.734375-59.734375 0-32.988281-26.742188-59.730469-59.734375-59.730469zm-68.265625-51.203125h51.199219v17.066407h-51.199219zm0 34.132813h51.199219v17.070312h-51.199219zm-153.601562-34.132813h51.203124v17.066407h-51.203124zm0 34.132813h51.203124v17.070312h-51.203124zm-153.597657-34.132813h51.199219v17.066407h-51.199219zm0 34.132813h51.199219v17.070312h-51.199219zm375.464844 119.46875h-392.53125c-23.566406 0-42.667969-19.101563-42.667969-42.667969 0-23.5625 19.101563-42.664063 42.667969-42.664063h392.53125c23.566406 0 42.667969 19.101563 42.667969 42.664063 0 23.566406-19.101563 42.667969-42.667969 42.667969zm0 0"/><path d="m452.265625 426.667969h-392.53125c-14.140625 0-25.601563 11.460937-25.601563 25.597656 0 14.140625 11.460938 25.601563 25.601563 25.601563h392.53125c14.140625 0 25.601563-11.460938 25.601563-25.601563 0-14.136719-11.460938-25.597656-25.601563-25.597656zm-392.53125 34.132812c-4.714844 0-8.535156-3.820312-8.535156-8.535156 0-4.710937 3.820312-8.53125 8.535156-8.53125 4.710937 0 8.53125 3.820313 8.53125 8.53125 0 4.714844-3.820313 8.535156-8.53125 8.535156zm24.027344 0c2.09375-5.496093 2.09375-11.570312 0-17.066406h148.207031c-2.09375 5.496094-2.09375 11.570313 0 17.066406zm172.238281 0c-4.714844 0-8.535156-3.820312-8.535156-8.535156 0-4.710937 3.824218-8.53125 8.535156-8.53125 4.714844 0 8.535156 3.820313 8.535156 8.53125 0 4.714844-3.820312 8.535156-8.535156 8.535156zm24.03125 0c2.09375-5.496093 2.09375-11.570312 0-17.066406h148.207031c-2.09375 5.496094-2.09375 11.570313 0 17.066406zm172.234375 0c-4.710937 0-8.53125-3.820312-8.53125-8.535156 0-4.710937 3.820313-8.53125 8.53125-8.53125 4.714844 0 8.535156 3.820313 8.535156 8.53125 0 4.714844-3.820312 8.535156-8.535156 8.535156zm0 0"/><path d="m93.867188 183.46875c7.070312 0 12.800781-5.730469 12.800781-12.800781 0-7.070313-5.730469-12.800781-12.800781-12.800781-7.070313 0-12.800782 5.730468-12.800782 12.800781 0 7.066406 5.730469 12.800781 12.800782 12.800781zm0-17.070312c2.355468 0 4.265624 1.910156 4.265624 4.269531 0 2.355469-1.910156 4.265625-4.265624 4.265625-2.355469 0-4.265626-1.910156-4.265626-4.265625 0-2.359375 1.910157-4.269531 4.265626-4.269531zm0 0"/><path d="m256 98.132812c7.070312 0 12.800781-5.730468 12.800781-12.800781 0-7.066406-5.730469-12.796875-12.800781-12.796875s-12.800781 5.730469-12.800781 12.796875c0 7.070313 5.730469 12.800781 12.800781 12.800781zm0-17.066406c2.355469 0 4.265625 1.910156 4.265625 4.265625 0 2.359375-1.910156 4.269531-4.265625 4.269531s-4.265625-1.910156-4.265625-4.269531c0-2.355469 1.910156-4.265625 4.265625-4.265625zm0 0"/><path d="m30.320312 263.679688 34.132813 17.066406c4.214844 2.109375 9.339844.398437 11.445313-3.816406.601562-1.199219.910156-2.523438.902343-3.863282v-39.132812l21-21 .605469-.0625 21.058594 21.0625v39.132812c-.023438 4.714844 3.773437 8.554688 8.488281 8.582032 1.339844.007812 2.664063-.300782 3.859375-.902344l34.136719-17.066406c2.90625-1.453126 4.734375-4.429688 4.71875-7.679688v-42.667969c0-2.261719-.902344-4.429687-2.5-6.03125l-25.601563-25.601562-2.289062-2.285157 115.722656-50.636718 121.113281 52.984375c1.386719 5.152343 3.738281 10 6.929688 14.28125 0 .078125-.042969.136719-.042969.214843v59.734376c.058594 15.515624 10.574219 29.042968 25.597656 32.921874v9.753907c0 4.710937 3.824219 8.53125 8.535156 8.53125 4.710938 0 8.535157-3.820313 8.535157-8.53125v-9.746094c15.023437-3.878906 25.539062-17.40625 25.597656-32.921875v-59.734375c0-.074219-.042969-.136719-.042969-.210937 5.539063-7.308594 8.546875-16.21875 8.578125-25.386719-.03125-23.554688-19.117187-42.640625-42.667969-42.667969-4.769531.058594-9.496093.921875-13.976562 2.558594l.332031-.757813-106.019531-46.394531c-.371094-8.574219-3.347656-16.832031-8.53125-23.671875h.195312v-59.734375h-68.265624v59.734375h.222656c-5.1875 6.839844-8.164063 15.097656-8.535156 23.671875l-106.035157 46.378906c-.253906.109375-.410156.324219-.648437.449219-21.992188-7.503906-45.90625 4.238281-53.414063 26.234375-2.855469 8.375-3 17.4375-.414062 25.898438l-24.941407 24.933593c-1.601562 1.597657-2.5 3.769531-2.5 6.03125v42.667969c-.019531 3.25 1.808594 6.226562 4.71875 7.679688zm404.878907-7.679688c0 9.425781-7.640625 17.066406-17.066407 17.066406-9.425781 0-17.066406-7.640625-17.066406-17.066406v-8.53125h34.132813zm0-25.601562h-34.132813v-20.683594c10.867188 4.824218 23.265625 4.824218 34.132813 0zm-17.066407-85.332032c14.140626 0 25.601563 11.460938 25.601563 25.601563 0 14.136719-11.460937 25.597656-25.601563 25.597656-14.136718 0-25.597656-11.460937-25.597656-25.597656 0-14.140625 11.460938-25.601563 25.597656-25.601563zm-122.46875-44.269531 91.902344 40.207031c-5.820312 5.992188-9.75 13.5625-11.296875 21.769532l-96.332031-42.144532c7.117188-4.875 12.601562-11.789062 15.726562-19.832031zm-56.730468-83.730469h34.132812v29.21875c-10.867187-4.824218-23.265625-4.824218-34.132812 0zm17.066406 42.667969c14.136719 0 25.601562 11.460937 25.601562 25.597656 0 14.140625-11.464843 25.601563-25.601562 25.601563s-25.601562-11.460938-25.601562-25.601563c0-14.136719 11.464843-25.597656 25.601562-25.597656zm-39.664062 41.0625c3.136718 8.046875 8.632812 14.960937 15.769531 19.832031l-96.375 42.144532c-1.546875-8.207032-5.476563-15.777344-11.296875-21.769532zm-86.398438 92.414063.5625.554687 23.101562 23.101563v33.859374l-17.066406 8.535157v-28.859375c0-2.265625-.902344-4.433594-2.5-6.035156l-17.621094-17.628907c5.472657-3.429687 10.097657-8.050781 13.523438-13.527343zm-36.070312-48.144532c14.136718 0 25.601562 11.460938 25.601562 25.601563 0 14.136719-11.464844 25.597656-25.601562 25.597656-14.140626 0-25.601563-11.460937-25.601563-25.597656 0-14.140625 11.460937-25.601563 25.601563-25.601563zm-51.199219 71.800782 18.773437-18.773438c4.164063 5.003906 9.417969 8.996094 15.359375 11.664062l-14.566406 14.609376c-1.601563 1.597656-2.5 3.769531-2.5 6.03125v28.859374l-17.066406-8.53125zm0 0"/><path d="m418.132812 183.46875c7.070313 0 12.800782-5.730469 12.800782-12.800781 0-7.070313-5.730469-12.800781-12.800782-12.800781-7.070312 0-12.800781 5.730468-12.800781 12.800781 0 7.066406 5.730469 12.800781 12.800781 12.800781zm0-17.070312c2.355469 0 4.265626 1.910156 4.265626 4.269531 0 2.355469-1.910157 4.265625-4.265626 4.265625-2.355468 0-4.265624-1.910156-4.265624-4.265625 0-2.359375 1.910156-4.269531 4.265624-4.269531zm0 0"/></svg>