<svg height="512pt" viewBox="-6 0 512 512" width="512pt" xmlns="http://www.w3.org/2000/svg"><path d="m344.523438 238.273438c-9.40625 0-18.417969 3.492187-25.382813 9.835937-15.34375 14.015625-16.425781 37.902344-2.417969 53.25 7.125 7.804687 17.269532 12.28125 27.835938 12.28125 9.417968 0 18.4375-3.503906 25.40625-9.871094 15.308594-14.019531 16.390625-37.890625 2.410156-53.210937-7.128906-7.808594-17.277344-12.285156-27.851562-12.285156zm15.242187 54.339843c-4.171875 3.8125-9.570313 5.910157-15.207031 5.910157-6.328125 0-12.402344-2.679688-16.671875-7.355469-8.394531-9.191407-7.742188-23.503907 1.4375-31.890625 4.171875-3.800782 9.566406-5.890625 15.199219-5.890625 6.335937 0 12.417968 2.683593 16.691406 7.359375 8.371094 9.175781 7.71875 23.476562-1.449219 31.867187zm0 0"/><path d="m428.222656 305.175781c9.289063 0 16.847656-7.558593 16.847656-16.851562v-24.734375c0-9.289063-7.558593-16.851563-16.847656-16.851563h-3.4375c-.839844-2.34375-1.78125-4.652343-2.828125-6.917969l2.382813-2.382812c3.1875-3.164062 4.949218-7.390625 4.960937-11.902344.007813-4.519531-1.746093-8.769531-4.9375-11.964844l-17.457031-17.460937c-3.183594-3.1875-7.421875-4.945313-11.933594-4.945313-4.523437 0-8.761718 1.765626-11.910156 4.945313l-2.40625 2.402344c-2.257812-1.042969-4.566406-1.988281-6.910156-2.828125v-3.441406c0-9.289063-7.558594-16.847657-16.847656-16.847657h-24.722657c-9.292969 0-16.851562 7.558594-16.851562 16.847657v3.917968c-2.203125.828125-4.359375 1.75-6.476563 2.757813l-2.808594-2.808594c-3.183593-3.1875-7.425781-4.945313-11.933593-4.945313-4.519531 0-8.761719 1.765626-11.910157 4.941407l-17.507812 17.484375c-6.535156 6.589844-6.527344 17.277344.023438 23.828125l3.308593 3.3125c-.886719 1.972656-1.695312 3.980469-2.421875 6.011719h-4.746094c-9.289062 0-16.847656 7.558593-16.847656 16.847656v24.734375c0 9.292969 7.558594 16.851562 16.847656 16.851562h5.242188c.714844 1.898438 1.496094 3.765625 2.335938 5.585938l-3.738282 3.730469c-6.539062 6.589843-6.527344 17.277343.019532 23.828124l17.484374 17.488282c3.171876 3.171875 7.402344 4.921875 11.910157 4.921875 4.5 0 8.730469-1.742188 11.945312-4.929688l3.691407-3.710937c1.824218.839844 3.6875 1.621094 5.582031 2.335937v5.246094c0 9.292969 7.558593 16.851563 16.851562 16.851563h24.722657c9.289062 0 16.847656-7.558594 16.847656-16.851563v-4.75c2.027344-.730469 4.03125-1.535156 6.007812-2.421875l3.308594 3.308594c3.171875 3.171875 7.402344 4.921875 11.910156 4.921875 4.5 0 8.730469-1.742188 11.9375-4.925781l17.433594-17.464844c3.1875-3.164063 4.949219-7.390625 4.960938-11.902344.007812-4.523438-1.746094-8.773438-4.941407-11.964844l-2.808593-2.816406c1.007812-2.113281 1.925781-4.277344 2.757812-6.480469zm-9.320312-15.113281c-3.332032 0-6.269532 2.179688-7.234375 5.367188-1.476563 4.875-3.480469 9.5625-5.949219 13.9375-1.671875 2.957031-1.167969 6.660156 1.230469 9.0625l6.726562 6.726562c.425781.429688.511719.917969.511719 1.253906 0 .324219-.085938.796875-.519531 1.226563l-17.429688 17.464843c-.449219.445313-.984375.511719-1.265625.511719-.332031 0-.816406-.082031-1.226562-.488281l-7.125-7.128906c-2.351563-2.355469-5.964844-2.890625-8.902344-1.324219-4.335938 2.3125-8.898438 4.148437-13.5625 5.449219-3.265625.910156-5.523438 3.886718-5.523438 7.277344v10.273437c0 .941406-.792968 1.734375-1.734374 1.734375h-24.722657c-.941406 0-1.734375-.792969-1.734375-1.734375v-10.648437c0-3.324219-2.171875-6.257813-5.351562-7.230469-4.648438-1.417969-9.085938-3.28125-13.191406-5.539063-1.144532-.628906-2.398438-.9375-3.640626-.9375-1.964843 0-3.902343.765625-5.359374 2.226563l-7.527344 7.558593c-.449219.445313-.984375.511719-1.265625.511719-.332031 0-.816407-.082031-1.222657-.488281l-17.484374-17.492188c-.667969-.667968-.65625-1.8125-.007813-2.464843l7.585937-7.5625c2.382813-2.375 2.910157-6.042969 1.289063-8.992188-2.253906-4.101562-4.121094-8.542969-5.542969-13.199219-.96875-3.179687-3.902344-5.351562-7.226562-5.351562h-10.644532c-.941406 0-1.734374-.792969-1.734374-1.738281v-24.734375c0-.941406.792968-1.734375 1.734374-1.734375h10.269532c3.394531 0 6.367187-2.261719 7.277344-5.527344 1.300781-4.664063 3.132812-9.226563 5.449218-13.570313 1.566406-2.933593 1.027344-6.546874-1.324218-8.898437l-7.125-7.128906c-.667969-.667969-.660157-1.808594-.003907-2.46875l17.507813-17.488281c.40625-.40625.878906-.492188 1.203125-.492188.332031 0 .820312.089844 1.242187.515625l6.722656 6.722656c2.398438 2.402344 6.109376 2.90625 9.066407 1.238281 4.367187-2.472656 9.058593-4.476562 13.9375-5.957031 3.1875-.964843 5.363281-3.902343 5.363281-7.230469v-9.324218c0-.941406.796875-1.734375 1.734375-1.734375h24.726563c.9375 0 1.734374.792969 1.734374 1.734375v8.945312c0 3.378906 2.242188 6.351563 5.492188 7.273438 4.996094 1.417968 9.839844 3.394531 14.394531 5.882812 2.945313 1.609375 6.597657 1.085938 8.96875-1.289062l6.28125-6.285156c.402344-.40625.875-.488282 1.203125-.488282.332032 0 .820313.085938 1.242188.511719l17.457031 17.464844c.425781.425781.515625.914062.515625 1.25-.003906.324219-.089844.800781-.515625 1.222656l-6.261719 6.265625c-2.371094 2.367188-2.894531 6.019531-1.289062 8.960938 2.488281 4.5625 4.46875 9.40625 5.882812 14.398437.921875 3.253906 3.890625 5.5 7.269532 5.5h8.945312c.9375 0 1.734375.792969 1.734375 1.734375v24.734375c0 .941406-.796875 1.738281-1.734375 1.738281h-9.316406zm0 0"/><path d="m113.675781 329.515625h-50.117187c-9.273438 0-16.816406 7.546875-16.816406 16.824219v13.332031c0 9.292969 7.542968 16.851563 16.816406 16.851563h50.117187c9.273438 0 16.816407-7.558594 16.816407-16.851563v-13.332031c0-9.277344-7.542969-16.824219-16.816407-16.824219zm1.703125 30.15625c0 .925781-.796875 1.734375-1.703125 1.734375h-50.117187c-.921875 0-1.703125-.792969-1.703125-1.734375v-13.332031c0-.929688.78125-1.710938 1.703125-1.710938h50.117187c.90625 0 1.703125.800782 1.703125 1.710938zm0 0"/><path d="m130.492188 286.621094c0-9.273438-7.542969-16.820313-16.816407-16.820313h-50.117187c-9.273438 0-16.816406 7.546875-16.816406 16.820313v13.363281c0 9.273437 7.542968 16.820313 16.816406 16.820313h50.117187c9.273438 0 16.816407-7.546876 16.816407-16.820313zm-15.113282 13.363281c0 .910156-.796875 1.707031-1.703125 1.707031h-50.117187c-.921875 0-1.703125-.78125-1.703125-1.707031v-13.363281c0-.925782.78125-1.707032 1.703125-1.707032h50.117187c.90625 0 1.703125.800782 1.703125 1.707032zm0 0"/><path d="m130.492188 226.90625c0-9.273438-7.542969-16.820312-16.816407-16.820312h-50.117187c-9.273438 0-16.816406 7.546874-16.816406 16.820312v13.363281c0 9.273438 7.542968 16.820313 16.816406 16.820313h50.117187c9.273438 0 16.816407-7.546875 16.816407-16.820313zm-15.113282 13.363281c0 .910157-.796875 1.707031-1.703125 1.707031h-50.117187c-.921875 0-1.703125-.78125-1.703125-1.707031v-13.363281c0-.925781.78125-1.707031 1.703125-1.707031h50.117187c.90625 0 1.703125.800781 1.703125 1.707031zm0 0"/><path d="m471.324219 451.109375h-10.5625v-21.191406h5.800781c13.363281 0 24.234375-10.875 24.234375-24.238281l.03125-142.867188c0-4.171875-3.382813-7.558594-7.554687-7.558594-.003907 0-.003907 0-.003907 0-4.171875 0-7.554687 3.382813-7.554687 7.554688l-.03125 142.867187c0 5.035157-4.089844 9.128907-9.121094 9.128907h-442.359375c-5.011719 0-9.089844-4.09375-9.089844-9.128907v-200.9375c0-42.269531 34.363281-76.660156 76.605469-76.660156h36.164062.023438.042969 119.230469.042968.023438 77.957031.023437.042969 119.226563.042968.027344 21.996094c4.945312 0 9.121094 4.179687 9.121094 9.125v89.039063c0 4.175781 3.382812 7.558593 7.554687 7.558593 4.175781 0 7.558594-3.382812 7.558594-7.558593v-89.039063c0-13.363281-10.871094-24.238281-24.234375-24.238281h-15.53125l-9.847656-63.996094h5.933594c7.523437 0 13.648437-6.132812 13.648437-13.675781v-21.644531c0-7.527344-6.121094-13.648438-13.648437-13.648438h-124.464844c-7.523438 0-13.644532 6.121094-13.644532 13.648438v21.644531c0 7.542969 6.121094 13.675781 13.644532 13.675781h5.933594l-9.851563 63.996094h-65.019531l-9.851563-63.996094h5.90625c7.539063 0 13.671875-6.132812 13.671875-13.675781v-21.644531c0-7.527344-6.128906-13.648438-13.671875-13.648438h-124.4375c-7.542969 0-13.675781 6.121094-13.675781 13.648438v21.644531c0 7.542969 6.132812 13.675781 13.675781 13.675781h5.933594l-9.851563 63.996094h-29.695312c-50.574219 0-91.71875 41.171875-91.71875 91.773437v200.9375c0 13.367188 10.859375 24.242188 24.203125 24.242188h21.441406v21.195312l-10.5625-.003906c-15.8125 0-28.675781 12.867187-28.675781 28.683594v3.523437c0 15.816406 12.863281 28.683594 28.675781 28.683594h436.242188c15.816406 0 28.679687-12.867188 28.679687-28.683594v-3.523437c0-15.816407-12.863281-28.683594-28.679687-28.683594zm-147.203125-435.996094h121.527344v18.742188h-121.527344zm19.757812 33.855469h82.015625l9.847657 63.996094h-101.714844zm-217.109375-33.855469h121.558594v18.742188h-121.558594zm19.789063 33.855469h82.015625l9.851562 63.996094h-101.714843zm338.332031 434.347656c0 7.480469-6.085937 13.570313-13.566406 13.570313h-436.242188c-7.480469 0-13.5625-6.089844-13.5625-13.570313v-3.523437c0-7.480469 6.082031-13.570313 13.558594-13.570313l209.355469.058594c4.171875 0 7.558594-3.382812 7.558594-7.554688 0-4.175781-3.382813-7.558593-7.554688-7.558593l-183.679688-.050781v-21.203126h384.894532v21.195313h-165.992188c-4.171875 0-7.554687 3.382813-7.554687 7.558594 0 4.171875 3.382812 7.554687 7.554687 7.554687h191.664063c7.480469 0 13.566406 6.089844 13.566406 13.570313zm0 0"/></svg>